<mxfile host="app.diagrams.net" agent="Mozilla/5.0 (Windows NT 10.0; Win64; x64) AppleWebKit/537.36 (KHTML, like Gecko) Chrome/130.0.0.0 Safari/537.36" version="24.8.2" pages="2">
  <diagram id="-gbvRjfuyI5PVGIDZ1SA" name="Paysage">
    <mxGraphModel grid="1" page="1" gridSize="10" guides="1" tooltips="1" connect="1" arrows="1" fold="1" pageScale="1" pageWidth="1169" pageHeight="827" math="0" shadow="0">
      <root>
        <mxCell id="0" />
        <mxCell id="1" parent="0" />
        <mxCell id="u-efo2nCP_xQX3T2_bRg-4" value="" style="rounded=0;whiteSpace=wrap;html=1;dashed=1;dashPattern=8 8;strokeColor=#A1A1A1;fillColor=none;gradientColor=none;strokeWidth=2;" vertex="1" parent="1">
          <mxGeometry x="16" y="20" width="160" height="211" as="geometry" />
        </mxCell>
        <mxCell id="u-efo2nCP_xQX3T2_bRg-6" value="" style="rounded=0;whiteSpace=wrap;html=1;dashed=1;dashPattern=8 8;strokeColor=#A1A1A1;fillColor=none;gradientColor=none;strokeWidth=2;" vertex="1" parent="1">
          <mxGeometry x="17" y="254.5" width="160" height="90" as="geometry" />
        </mxCell>
        <mxCell id="FReqguICxLN7kOlpUNlB-2" value="" style="swimlane;startSize=0;dashed=1;strokeWidth=1;perimeterSpacing=1;" vertex="1" parent="1">
          <mxGeometry x="952.5" y="280" width="150" height="180" as="geometry">
            <mxRectangle x="860" y="340" width="50" height="40" as="alternateBounds" />
          </mxGeometry>
        </mxCell>
        <mxCell id="FReqguICxLN7kOlpUNlB-5" value="&lt;font size=&quot;1&quot; style=&quot;&quot;&gt;&lt;b style=&quot;font-size: 12px;&quot;&gt;Légende&lt;/b&gt;&lt;/font&gt;" style="text;html=1;strokeColor=none;fillColor=none;align=center;verticalAlign=middle;whiteSpace=wrap;rounded=0;fontSize=11;" vertex="1" parent="FReqguICxLN7kOlpUNlB-2">
          <mxGeometry x="83" y="2" width="60" height="20" as="geometry" />
        </mxCell>
        <mxCell id="n_8uHTCpacEEThIwP_uq-5" value="&lt;font color=&quot;#60634d&quot;&gt;Entrée&lt;/font&gt;" style="shape=parallelogram;perimeter=parallelogramPerimeter;whiteSpace=wrap;html=1;fixedSize=1;fillColor=#C8CFA0;strokeColor=#A0A680;strokeWidth=2;fontStyle=1;fontColor=#99CCFF;align=center;verticalAlign=middle;fontFamily=Helvetica;fontSize=12;opacity=80;" vertex="1" parent="FReqguICxLN7kOlpUNlB-2">
          <mxGeometry x="17.5" y="30" width="115" height="30" as="geometry" />
        </mxCell>
        <mxCell id="n_8uHTCpacEEThIwP_uq-6" value="&lt;font color=&quot;#6b5d3f&quot;&gt;Sortie partielle&lt;/font&gt;" style="shape=parallelogram;perimeter=parallelogramPerimeter;whiteSpace=wrap;html=1;fixedSize=1;fillColor=#FCDC94;strokeColor=#AB9565;strokeWidth=2;fontStyle=1;fontColor=#AB9565;opacity=80;textOpacity=90;" vertex="1" parent="FReqguICxLN7kOlpUNlB-2">
          <mxGeometry x="17.5" y="70" width="115" height="30" as="geometry" />
        </mxCell>
        <mxCell id="n_8uHTCpacEEThIwP_uq-7" value="&lt;font color=&quot;#7d5135&quot;&gt;Sortie final&lt;/font&gt;" style="shape=parallelogram;perimeter=parallelogramPerimeter;whiteSpace=wrap;html=1;fixedSize=1;fillColor=#EF9C66;strokeColor=#A16845;strokeWidth=2;fontStyle=1;fontColor=#B5764D;opacity=80;textOpacity=90;" vertex="1" parent="FReqguICxLN7kOlpUNlB-2">
          <mxGeometry x="17.5" y="110" width="115" height="30" as="geometry" />
        </mxCell>
        <mxCell id="n_8uHTCpacEEThIwP_uq-8" value="&lt;font color=&quot;#23445d&quot;&gt;Traitement&lt;/font&gt;" style="rounded=1;whiteSpace=wrap;html=1;fillColor=#78ABA8;strokeColor=#23445d;strokeWidth=2;fontStyle=1;fontColor=default;align=center;verticalAlign=middle;fontFamily=Helvetica;fontSize=12;opacity=60;textOpacity=90;" vertex="1" parent="FReqguICxLN7kOlpUNlB-2">
          <mxGeometry x="20" y="150" width="110" height="20" as="geometry" />
        </mxCell>
        <mxCell id="FReqguICxLN7kOlpUNlB-8" style="edgeStyle=orthogonalEdgeStyle;rounded=0;orthogonalLoop=1;jettySize=auto;html=1;opacity=70;" edge="1" parent="1" source="FReqguICxLN7kOlpUNlB-9" target="FReqguICxLN7kOlpUNlB-19">
          <mxGeometry relative="1" as="geometry" />
        </mxCell>
        <mxCell id="FReqguICxLN7kOlpUNlB-9" value="&lt;font color=&quot;#23445d&quot;&gt;masquage&lt;/font&gt;&lt;div&gt;&lt;span style=&quot;font-weight: normal;&quot;&gt;&lt;font color=&quot;#23445d&quot;&gt;(pixels fiables)&lt;/font&gt;&lt;/span&gt;&lt;/div&gt;" style="rounded=1;whiteSpace=wrap;html=1;fillColor=#78ABA8;strokeColor=#23445d;strokeWidth=2;fontStyle=1;fontColor=default;align=center;verticalAlign=middle;fontFamily=Helvetica;fontSize=12;opacity=60;" vertex="1" parent="1">
          <mxGeometry x="211" y="106" width="110" height="45" as="geometry" />
        </mxCell>
        <mxCell id="FReqguICxLN7kOlpUNlB-11" value="" style="shape=parallelogram;perimeter=parallelogramPerimeter;whiteSpace=wrap;html=1;fixedSize=1;fillColor=#FCDC94;strokeColor=#AB9565;strokeWidth=2;fontStyle=1;fontColor=#006600;align=center;verticalAlign=middle;fontFamily=Helvetica;fontSize=12;opacity=80;" vertex="1" parent="1">
          <mxGeometry x="635.5" y="93" width="142" height="45" as="geometry" />
        </mxCell>
        <mxCell id="FReqguICxLN7kOlpUNlB-18" style="edgeStyle=orthogonalEdgeStyle;rounded=0;orthogonalLoop=1;jettySize=auto;html=1;opacity=70;" edge="1" parent="1" source="FReqguICxLN7kOlpUNlB-19" target="FReqguICxLN7kOlpUNlB-20">
          <mxGeometry relative="1" as="geometry" />
        </mxCell>
        <mxCell id="FReqguICxLN7kOlpUNlB-19" value="&lt;font color=&quot;#23445d&quot;&gt;filtrage&lt;/font&gt;&lt;div&gt;&lt;span style=&quot;font-weight: normal;&quot;&gt;&lt;font color=&quot;#23445d&quot;&gt;(obs consécutives &amp;gt; 12)&lt;/font&gt;&lt;/span&gt;&lt;/div&gt;" style="rounded=1;whiteSpace=wrap;html=1;fillColor=#78ABA8;strokeColor=#23445d;strokeWidth=2;fontStyle=1;fontColor=default;align=center;verticalAlign=middle;fontFamily=Helvetica;fontSize=12;opacity=60;" vertex="1" parent="1">
          <mxGeometry x="348" y="106" width="136" height="45" as="geometry" />
        </mxCell>
        <mxCell id="FReqguICxLN7kOlpUNlB-20" value="&lt;font color=&quot;#23445d&quot;&gt;interpolation&lt;/font&gt;&lt;div&gt;&lt;span style=&quot;font-weight: normal;&quot;&gt;&lt;font color=&quot;#23445d&quot;&gt;(linéaire)&lt;/font&gt;&lt;/span&gt;&lt;/div&gt;" style="rounded=1;whiteSpace=wrap;html=1;fillColor=#78ABA8;strokeColor=#23445d;strokeWidth=2;fontStyle=1;fontColor=default;align=center;verticalAlign=middle;fontFamily=Helvetica;fontSize=12;opacity=60;" vertex="1" parent="1">
          <mxGeometry x="511" y="106" width="110" height="45" as="geometry" />
        </mxCell>
        <mxCell id="FReqguICxLN7kOlpUNlB-21" style="edgeStyle=orthogonalEdgeStyle;rounded=0;orthogonalLoop=1;jettySize=auto;html=1;opacity=70;" edge="1" parent="1" source="FReqguICxLN7kOlpUNlB-22" target="FReqguICxLN7kOlpUNlB-24">
          <mxGeometry relative="1" as="geometry" />
        </mxCell>
        <mxCell id="FReqguICxLN7kOlpUNlB-22" value="&lt;font color=&quot;#60634d&quot;&gt;Annual Change&lt;/font&gt;&lt;div&gt;&lt;font color=&quot;#60634d&quot;&gt;2020&lt;/font&gt;&lt;/div&gt;" style="shape=parallelogram;perimeter=parallelogramPerimeter;whiteSpace=wrap;html=1;fixedSize=1;fillColor=#C8CFA0;strokeColor=#A0A680;strokeWidth=2;fontStyle=1;fontColor=#99CCFF;align=center;verticalAlign=middle;fontFamily=Helvetica;fontSize=12;opacity=80;" vertex="1" parent="1">
          <mxGeometry x="29.33" y="276.32" width="133.33333333333334" height="52.36363636363636" as="geometry" />
        </mxCell>
        <mxCell id="u-efo2nCP_xQX3T2_bRg-2" style="edgeStyle=orthogonalEdgeStyle;rounded=0;orthogonalLoop=1;jettySize=auto;html=1;opacity=70;" edge="1" parent="1" source="FReqguICxLN7kOlpUNlB-24" target="FReqguICxLN7kOlpUNlB-26">
          <mxGeometry relative="1" as="geometry" />
        </mxCell>
        <mxCell id="FReqguICxLN7kOlpUNlB-24" value="&lt;font color=&quot;#23445d&quot;&gt;reclassification&amp;nbsp;&lt;/font&gt;&lt;div&gt;&lt;span style=&quot;font-weight: normal;&quot;&gt;&lt;font color=&quot;#23445d&quot;&gt;(forêt non pertubée)&lt;/font&gt;&lt;/span&gt;&lt;/div&gt;" style="rounded=1;whiteSpace=wrap;html=1;fillColor=#78ABA8;strokeColor=#23445d;strokeWidth=2;fontStyle=1;fontColor=default;align=center;verticalAlign=middle;fontFamily=Helvetica;fontSize=12;opacity=60;" vertex="1" parent="1">
          <mxGeometry x="240" y="280" width="130" height="45" as="geometry" />
        </mxCell>
        <mxCell id="u-efo2nCP_xQX3T2_bRg-3" style="edgeStyle=orthogonalEdgeStyle;rounded=0;orthogonalLoop=1;jettySize=auto;html=1;opacity=70;" edge="1" parent="1" source="FReqguICxLN7kOlpUNlB-26" target="FReqguICxLN7kOlpUNlB-31">
          <mxGeometry relative="1" as="geometry" />
        </mxCell>
        <mxCell id="FReqguICxLN7kOlpUNlB-26" value="&lt;font color=&quot;#23445d&quot;&gt;aggregation&lt;/font&gt;&lt;div&gt;&lt;span style=&quot;font-weight: normal;&quot;&gt;&lt;font color=&quot;#23445d&quot;&gt;( &amp;gt; 95% de forêt)&lt;/font&gt;&lt;/span&gt;&lt;/div&gt;" style="rounded=1;whiteSpace=wrap;html=1;fillColor=#78ABA8;strokeColor=#23445d;strokeWidth=2;fontStyle=1;fontColor=default;align=center;verticalAlign=middle;fontFamily=Helvetica;fontSize=12;opacity=60;" vertex="1" parent="1">
          <mxGeometry x="440" y="280" width="130" height="45" as="geometry" />
        </mxCell>
        <mxCell id="FReqguICxLN7kOlpUNlB-27" value="" style="shape=parallelogram;perimeter=parallelogramPerimeter;whiteSpace=wrap;html=1;fixedSize=1;fillColor=#FCDC94;strokeColor=#AB9565;strokeWidth=2;fontStyle=1;fontColor=#006600;align=center;verticalAlign=middle;fontFamily=Helvetica;fontSize=12;opacity=80;" vertex="1" parent="1">
          <mxGeometry x="639.5" y="100" width="142" height="45" as="geometry" />
        </mxCell>
        <mxCell id="u-efo2nCP_xQX3T2_bRg-1" style="edgeStyle=orthogonalEdgeStyle;rounded=0;orthogonalLoop=1;jettySize=auto;html=1;opacity=70;" edge="1" parent="1" source="FReqguICxLN7kOlpUNlB-29" target="FReqguICxLN7kOlpUNlB-34">
          <mxGeometry relative="1" as="geometry" />
        </mxCell>
        <mxCell id="FReqguICxLN7kOlpUNlB-29" value="&lt;font color=&quot;#6b5d3f&quot;&gt;EVI rempli&lt;/font&gt;" style="shape=parallelogram;perimeter=parallelogramPerimeter;whiteSpace=wrap;html=1;fixedSize=1;fillColor=#FCDC94;strokeColor=#AB9565;strokeWidth=2;fontStyle=1;fontColor=#006600;align=center;verticalAlign=middle;fontFamily=Helvetica;fontSize=12;" vertex="1" parent="1">
          <mxGeometry x="644.5" y="106" width="142" height="45" as="geometry" />
        </mxCell>
        <mxCell id="FReqguICxLN7kOlpUNlB-30" style="edgeStyle=orthogonalEdgeStyle;rounded=0;orthogonalLoop=1;jettySize=auto;html=1;opacity=70;" edge="1" parent="1" source="FReqguICxLN7kOlpUNlB-31" target="FReqguICxLN7kOlpUNlB-34">
          <mxGeometry relative="1" as="geometry" />
        </mxCell>
        <mxCell id="FReqguICxLN7kOlpUNlB-31" value="&lt;font color=&quot;#6b5d3f&quot;&gt;couverture&amp;nbsp;&lt;/font&gt;&lt;div&gt;&lt;font color=&quot;#6b5d3f&quot;&gt;forestière 2020&lt;/font&gt;&lt;/div&gt;" style="shape=parallelogram;perimeter=parallelogramPerimeter;whiteSpace=wrap;html=1;fixedSize=1;fillColor=#FCDC94;strokeColor=#AB9565;strokeWidth=2;fontStyle=1;fontColor=#AB9565;opacity=80;" vertex="1" parent="1">
          <mxGeometry x="643.5" y="280" width="142" height="45" as="geometry" />
        </mxCell>
        <mxCell id="FReqguICxLN7kOlpUNlB-32" value="&lt;font color=&quot;#23445d&quot;&gt;filtrage&lt;/font&gt;&lt;div&gt;&lt;font color=&quot;#23445d&quot;&gt;Savitzky-Golay&lt;/font&gt;&lt;/div&gt;" style="rounded=1;whiteSpace=wrap;html=1;fillColor=#78ABA8;strokeColor=#23445d;strokeWidth=2;fontStyle=1;fontColor=default;align=center;verticalAlign=middle;fontFamily=Helvetica;fontSize=12;opacity=60;" vertex="1" parent="1">
          <mxGeometry x="810" y="188.5" width="110" height="45" as="geometry" />
        </mxCell>
        <mxCell id="FReqguICxLN7kOlpUNlB-33" style="edgeStyle=orthogonalEdgeStyle;rounded=0;orthogonalLoop=1;jettySize=auto;html=1;opacity=70;" edge="1" parent="1" source="FReqguICxLN7kOlpUNlB-34" target="FReqguICxLN7kOlpUNlB-32">
          <mxGeometry relative="1" as="geometry" />
        </mxCell>
        <mxCell id="FReqguICxLN7kOlpUNlB-34" value="&lt;font color=&quot;#23445d&quot;&gt;masquage&lt;/font&gt;" style="rounded=1;whiteSpace=wrap;html=1;fillColor=#78ABA8;strokeColor=#23445D;strokeWidth=2;fontStyle=1;fontColor=default;align=center;verticalAlign=middle;fontFamily=Helvetica;fontSize=12;opacity=60;" vertex="1" parent="1">
          <mxGeometry x="659.5" y="191" width="110" height="40" as="geometry" />
        </mxCell>
        <mxCell id="FReqguICxLN7kOlpUNlB-35" value="" style="shape=parallelogram;perimeter=parallelogramPerimeter;whiteSpace=wrap;html=1;fixedSize=1;fillColor=#EFB283;strokeColor=#A16845;strokeWidth=2;fontStyle=1;align=center;verticalAlign=middle;fontFamily=Helvetica;fontSize=12;fontColor=#B5764D;opacity=80;" vertex="1" parent="1">
          <mxGeometry x="950" y="178.5" width="140" height="45" as="geometry" />
        </mxCell>
        <mxCell id="FReqguICxLN7kOlpUNlB-36" value="" style="shape=parallelogram;perimeter=parallelogramPerimeter;whiteSpace=wrap;html=1;fixedSize=1;fillColor=#EFB283;strokeColor=#A16845;strokeWidth=2;fontStyle=1;align=center;verticalAlign=middle;fontFamily=Helvetica;fontSize=12;fontColor=#B5764D;opacity=80;" vertex="1" parent="1">
          <mxGeometry x="954" y="183.5" width="140" height="45" as="geometry" />
        </mxCell>
        <mxCell id="FReqguICxLN7kOlpUNlB-37" value="&lt;font color=&quot;#7d5135&quot;&gt;EVI lissé&lt;/font&gt;" style="shape=parallelogram;perimeter=parallelogramPerimeter;whiteSpace=wrap;html=1;fixedSize=1;fillColor=#EFB283;strokeColor=#A16845;strokeWidth=2;fontStyle=1;fontColor=#B5764D;" vertex="1" parent="1">
          <mxGeometry x="958" y="188.5" width="140" height="45" as="geometry" />
        </mxCell>
        <mxCell id="FReqguICxLN7kOlpUNlB-38" style="edgeStyle=orthogonalEdgeStyle;rounded=0;orthogonalLoop=1;jettySize=auto;html=1;opacity=70;" edge="1" parent="1" source="FReqguICxLN7kOlpUNlB-20" target="FReqguICxLN7kOlpUNlB-29">
          <mxGeometry relative="1" as="geometry" />
        </mxCell>
        <mxCell id="FReqguICxLN7kOlpUNlB-39" style="edgeStyle=orthogonalEdgeStyle;rounded=0;orthogonalLoop=1;jettySize=auto;html=1;fontSize=11;opacity=70;" edge="1" parent="1" source="FReqguICxLN7kOlpUNlB-32" target="FReqguICxLN7kOlpUNlB-37">
          <mxGeometry relative="1" as="geometry" />
        </mxCell>
        <mxCell id="u-efo2nCP_xQX3T2_bRg-5" value="Raster stack" style="text;html=1;strokeColor=none;fillColor=none;align=left;verticalAlign=middle;whiteSpace=wrap;rounded=0;fontColor=#616161;fontStyle=1;fontSize=11;" vertex="1" parent="1">
          <mxGeometry x="20" y="25" width="71.5" height="13.62" as="geometry" />
        </mxCell>
        <mxCell id="u-efo2nCP_xQX3T2_bRg-7" value="Raster" style="text;html=1;strokeColor=none;fillColor=none;align=left;verticalAlign=middle;whiteSpace=wrap;rounded=0;fontColor=#616161;fontStyle=1;fontSize=11;" vertex="1" parent="1">
          <mxGeometry x="20" y="258.5" width="41" height="13.62" as="geometry" />
        </mxCell>
        <mxCell id="-rwABIqBRiv7QqJ0ooa7-1" value="" style="group" connectable="0" vertex="1" parent="1">
          <mxGeometry x="26" y="46" width="140" height="64" as="geometry" />
        </mxCell>
        <mxCell id="FReqguICxLN7kOlpUNlB-1" value="" style="shape=parallelogram;perimeter=parallelogramPerimeter;whiteSpace=wrap;html=1;fixedSize=1;fillColor=#C8CFA0;strokeColor=#A0A680;strokeWidth=2;fontStyle=1;fontColor=#99CCFF;align=center;verticalAlign=middle;fontFamily=Helvetica;fontSize=12;opacity=80;" vertex="1" parent="-rwABIqBRiv7QqJ0ooa7-1">
          <mxGeometry width="133.33333333333334" height="52.36363636363636" as="geometry" />
        </mxCell>
        <mxCell id="FReqguICxLN7kOlpUNlB-10" value="" style="shape=parallelogram;perimeter=parallelogramPerimeter;whiteSpace=wrap;html=1;fixedSize=1;fillColor=#C8CFA0;strokeColor=#A0A680;strokeWidth=2;fontStyle=1;fontColor=#99CCFF;align=center;verticalAlign=middle;fontFamily=Helvetica;fontSize=12;opacity=80;" vertex="1" parent="-rwABIqBRiv7QqJ0ooa7-1">
          <mxGeometry x="3.333333333333334" y="5.818181818181818" width="133.33333333333334" height="52.36363636363636" as="geometry" />
        </mxCell>
        <mxCell id="FReqguICxLN7kOlpUNlB-13" value="&lt;font color=&quot;#60634d&quot;&gt;MODIS VI - EVI&lt;/font&gt;&lt;div&gt;&lt;font style=&quot;font-weight: normal;&quot; color=&quot;#60634d&quot;&gt;(série temporelle)&lt;/font&gt;&lt;/div&gt;" style="shape=parallelogram;perimeter=parallelogramPerimeter;whiteSpace=wrap;html=1;fixedSize=1;fillColor=#C8CFA0;strokeColor=#A0A680;strokeWidth=2;fontStyle=1;fontColor=#99CCFF;align=center;verticalAlign=middle;fontFamily=Helvetica;fontSize=12;" vertex="1" parent="-rwABIqBRiv7QqJ0ooa7-1">
          <mxGeometry x="6.666666666666668" y="11.636363636363637" width="133.33333333333334" height="52.36363636363636" as="geometry" />
        </mxCell>
        <mxCell id="-rwABIqBRiv7QqJ0ooa7-3" value="" style="shape=parallelogram;perimeter=parallelogramPerimeter;whiteSpace=wrap;html=1;fixedSize=1;fillColor=#C8CFA0;strokeColor=#A0A680;strokeWidth=2;fontStyle=1;fontColor=#99CCFF;align=center;verticalAlign=middle;fontFamily=Helvetica;fontSize=12;opacity=80;" vertex="1" parent="1">
          <mxGeometry x="26" y="140" width="133.33333333333334" height="52.36363636363636" as="geometry" />
        </mxCell>
        <mxCell id="-rwABIqBRiv7QqJ0ooa7-4" value="" style="shape=parallelogram;perimeter=parallelogramPerimeter;whiteSpace=wrap;html=1;fixedSize=1;fillColor=#C8CFA0;strokeColor=#A0A680;strokeWidth=2;fontStyle=1;fontColor=#99CCFF;align=center;verticalAlign=middle;fontFamily=Helvetica;fontSize=12;opacity=80;" vertex="1" parent="1">
          <mxGeometry x="29.333333333333336" y="145.8181818181818" width="133.33333333333334" height="52.36363636363636" as="geometry" />
        </mxCell>
        <mxCell id="-rwABIqBRiv7QqJ0ooa7-6" style="edgeStyle=orthogonalEdgeStyle;rounded=0;orthogonalLoop=1;jettySize=auto;html=1;entryX=0;entryY=0.5;entryDx=0;entryDy=0;" edge="1" parent="1" source="-rwABIqBRiv7QqJ0ooa7-5" target="FReqguICxLN7kOlpUNlB-9">
          <mxGeometry relative="1" as="geometry" />
        </mxCell>
        <mxCell id="-rwABIqBRiv7QqJ0ooa7-5" value="&lt;font color=&quot;#60634d&quot;&gt;MODIS QA&lt;/font&gt;&lt;div&gt;&lt;font style=&quot;font-weight: normal;&quot; color=&quot;#60634d&quot;&gt;(série temporelle)&lt;/font&gt;&lt;/div&gt;" style="shape=parallelogram;perimeter=parallelogramPerimeter;whiteSpace=wrap;html=1;fixedSize=1;fillColor=#C8CFA0;strokeColor=#A0A680;strokeWidth=2;fontStyle=1;fontColor=#99CCFF;align=center;verticalAlign=middle;fontFamily=Helvetica;fontSize=12;" vertex="1" parent="1">
          <mxGeometry x="32.66666666666667" y="151.63636363636363" width="133.33333333333334" height="52.36363636363636" as="geometry" />
        </mxCell>
        <mxCell id="-rwABIqBRiv7QqJ0ooa7-7" style="edgeStyle=orthogonalEdgeStyle;rounded=0;orthogonalLoop=1;jettySize=auto;html=1;entryX=0;entryY=0.5;entryDx=0;entryDy=0;" edge="1" parent="1" source="FReqguICxLN7kOlpUNlB-13" target="FReqguICxLN7kOlpUNlB-9">
          <mxGeometry relative="1" as="geometry" />
        </mxCell>
      </root>
    </mxGraphModel>
  </diagram>
  <diagram name="Portrait" id="Uk1ItWZ94pd6g9aPu8x0">
    <mxGraphModel grid="1" page="1" gridSize="10" guides="1" tooltips="1" connect="1" arrows="1" fold="1" pageScale="1" pageWidth="1169" pageHeight="827" background="none" math="0" shadow="0">
      <root>
        <mxCell id="0" />
        <mxCell id="1" parent="0" />
        <mxCell id="p4yHd_IoO0GRbVISugNZ-3" value="" style="shape=parallelogram;perimeter=parallelogramPerimeter;whiteSpace=wrap;html=1;fixedSize=1;fillColor=#CCE5FF;strokeColor=#66B2FF;strokeWidth=2;fontStyle=1;fontColor=#99CCFF;" vertex="1" parent="1">
          <mxGeometry x="40" y="46" width="120" height="45" as="geometry" />
        </mxCell>
        <mxCell id="p4yHd_IoO0GRbVISugNZ-87" value="" style="swimlane;startSize=0;dashed=1;strokeWidth=1;perimeterSpacing=1;" vertex="1" parent="1">
          <mxGeometry x="30" y="510" width="160" height="210" as="geometry">
            <mxRectangle x="15" y="550" width="50" height="40" as="alternateBounds" />
          </mxGeometry>
        </mxCell>
        <mxCell id="p4yHd_IoO0GRbVISugNZ-76" value="Sortie partie" style="shape=parallelogram;perimeter=parallelogramPerimeter;whiteSpace=wrap;html=1;fixedSize=1;fillColor=#CCFFCC;strokeColor=#009900;strokeWidth=2;fontStyle=1;fontColor=#006600;" vertex="1" parent="p4yHd_IoO0GRbVISugNZ-87">
          <mxGeometry x="30" y="90" width="110" height="30" as="geometry" />
        </mxCell>
        <mxCell id="p4yHd_IoO0GRbVISugNZ-60" value="&lt;font color=&quot;#004491&quot;&gt;Entrée&lt;/font&gt;" style="shape=parallelogram;perimeter=parallelogramPerimeter;whiteSpace=wrap;html=1;fixedSize=1;fillColor=#CCE5FF;strokeColor=#66B2FF;strokeWidth=2;fontStyle=1;fontColor=#99CCFF;" vertex="1" parent="p4yHd_IoO0GRbVISugNZ-87">
          <mxGeometry x="30" y="50" width="110" height="30" as="geometry" />
        </mxCell>
        <mxCell id="p4yHd_IoO0GRbVISugNZ-88" value="&lt;font style=&quot;font-size: 15px;&quot;&gt;&lt;b&gt;Légende&lt;/b&gt;&lt;/font&gt;" style="text;html=1;strokeColor=none;fillColor=none;align=center;verticalAlign=middle;whiteSpace=wrap;rounded=0;" vertex="1" parent="p4yHd_IoO0GRbVISugNZ-87">
          <mxGeometry y="10" width="75" height="30" as="geometry" />
        </mxCell>
        <mxCell id="p4yHd_IoO0GRbVISugNZ-75" value="Traitement" style="rounded=1;whiteSpace=wrap;html=1;fillColor=#FFCCCC;strokeColor=#FF9999;strokeWidth=2;fontStyle=1;fontColor=#660000;" vertex="1" parent="p4yHd_IoO0GRbVISugNZ-87">
          <mxGeometry x="30" y="170" width="100" height="20" as="geometry" />
        </mxCell>
        <mxCell id="64QyZlruJRFiGi9GUUAa-48" value="&lt;font color=&quot;#7f6315&quot;&gt;Sortie final&lt;br&gt;&lt;/font&gt;" style="shape=parallelogram;perimeter=parallelogramPerimeter;whiteSpace=wrap;html=1;fixedSize=1;fillColor=#fff2cc;strokeColor=#cb9b2a;strokeWidth=2;fontStyle=1;" vertex="1" parent="p4yHd_IoO0GRbVISugNZ-87">
          <mxGeometry x="25" y="130" width="110" height="30" as="geometry" />
        </mxCell>
        <mxCell id="yboB7hye_Gtw3f_Axh3L-13" style="edgeStyle=orthogonalEdgeStyle;rounded=0;orthogonalLoop=1;jettySize=auto;html=1;" edge="1" parent="1" source="64QyZlruJRFiGi9GUUAa-101" target="aZ8XBkIxwnrdvl8guLjz-16">
          <mxGeometry relative="1" as="geometry" />
        </mxCell>
        <mxCell id="64QyZlruJRFiGi9GUUAa-101" value="mask&lt;div&gt;(quality bits)&lt;/div&gt;" style="rounded=1;whiteSpace=wrap;html=1;fillColor=#FFCCCC;strokeColor=#FF9999;strokeWidth=2;fontStyle=1;fontColor=#660000;" vertex="1" parent="1">
          <mxGeometry x="129.5" y="150" width="110" height="45" as="geometry" />
        </mxCell>
        <mxCell id="aZ8XBkIxwnrdvl8guLjz-1" value="" style="shape=parallelogram;perimeter=parallelogramPerimeter;whiteSpace=wrap;html=1;fixedSize=1;fillColor=#CCE5FF;strokeColor=#66B2FF;strokeWidth=2;fontStyle=1;fontColor=#99CCFF;" vertex="1" parent="1">
          <mxGeometry x="43" y="51" width="120" height="45" as="geometry" />
        </mxCell>
        <mxCell id="aZ8XBkIxwnrdvl8guLjz-5" value="" style="shape=parallelogram;perimeter=parallelogramPerimeter;whiteSpace=wrap;html=1;fixedSize=1;fillColor=#CCFFCC;strokeColor=#009900;strokeWidth=2;fontStyle=1;fontColor=#006600;" vertex="1" parent="1">
          <mxGeometry x="104.5" y="367" width="142" height="45" as="geometry" />
        </mxCell>
        <mxCell id="yboB7hye_Gtw3f_Axh3L-9" style="edgeStyle=orthogonalEdgeStyle;rounded=0;orthogonalLoop=1;jettySize=auto;html=1;" edge="1" parent="1" source="aZ8XBkIxwnrdvl8guLjz-6" target="64QyZlruJRFiGi9GUUAa-101">
          <mxGeometry relative="1" as="geometry">
            <Array as="points">
              <mxPoint x="106" y="120" />
              <mxPoint x="185" y="120" />
            </Array>
          </mxGeometry>
        </mxCell>
        <mxCell id="aZ8XBkIxwnrdvl8guLjz-6" value="&lt;font color=&quot;#004491&quot;&gt;MODIS VI - EVI&lt;/font&gt;&lt;div&gt;&lt;font color=&quot;#004491&quot;&gt;(time series)&lt;/font&gt;&lt;/div&gt;" style="shape=parallelogram;perimeter=parallelogramPerimeter;whiteSpace=wrap;html=1;fixedSize=1;fillColor=#CCE5FF;strokeColor=#66B2FF;strokeWidth=2;fontStyle=1;fontColor=#99CCFF;" vertex="1" parent="1">
          <mxGeometry x="46" y="56" width="120" height="45" as="geometry" />
        </mxCell>
        <mxCell id="aZ8XBkIxwnrdvl8guLjz-10" value="" style="shape=parallelogram;perimeter=parallelogramPerimeter;whiteSpace=wrap;html=1;fixedSize=1;fillColor=#CCE5FF;strokeColor=#66B2FF;strokeWidth=2;fontStyle=1;fontColor=#99CCFF;" vertex="1" parent="1">
          <mxGeometry x="217.5" y="46" width="120" height="45" as="geometry" />
        </mxCell>
        <mxCell id="aZ8XBkIxwnrdvl8guLjz-11" value="" style="shape=parallelogram;perimeter=parallelogramPerimeter;whiteSpace=wrap;html=1;fixedSize=1;fillColor=#CCE5FF;strokeColor=#66B2FF;strokeWidth=2;fontStyle=1;fontColor=#99CCFF;" vertex="1" parent="1">
          <mxGeometry x="220.5" y="51" width="120" height="45" as="geometry" />
        </mxCell>
        <mxCell id="yboB7hye_Gtw3f_Axh3L-8" style="edgeStyle=orthogonalEdgeStyle;rounded=0;orthogonalLoop=1;jettySize=auto;html=1;entryX=0.5;entryY=0;entryDx=0;entryDy=0;" edge="1" parent="1" source="aZ8XBkIxwnrdvl8guLjz-12" target="64QyZlruJRFiGi9GUUAa-101">
          <mxGeometry relative="1" as="geometry">
            <Array as="points">
              <mxPoint x="284" y="120" />
              <mxPoint x="185" y="120" />
            </Array>
          </mxGeometry>
        </mxCell>
        <mxCell id="aZ8XBkIxwnrdvl8guLjz-12" value="&lt;font color=&quot;#004491&quot;&gt;MODIS QA&lt;/font&gt;&lt;div&gt;&lt;font color=&quot;#004491&quot;&gt;(time series)&lt;/font&gt;&lt;/div&gt;" style="shape=parallelogram;perimeter=parallelogramPerimeter;whiteSpace=wrap;html=1;fixedSize=1;fillColor=#CCE5FF;strokeColor=#66B2FF;strokeWidth=2;fontStyle=1;fontColor=#99CCFF;" vertex="1" parent="1">
          <mxGeometry x="223.5" y="56" width="120" height="45" as="geometry" />
        </mxCell>
        <mxCell id="yboB7hye_Gtw3f_Axh3L-14" style="edgeStyle=orthogonalEdgeStyle;rounded=0;orthogonalLoop=1;jettySize=auto;html=1;" edge="1" parent="1" source="aZ8XBkIxwnrdvl8guLjz-16" target="aZ8XBkIxwnrdvl8guLjz-18">
          <mxGeometry relative="1" as="geometry" />
        </mxCell>
        <mxCell id="aZ8XBkIxwnrdvl8guLjz-16" value="max_consecutive&lt;div&gt;( &amp;lt; 12)&lt;/div&gt;" style="rounded=1;whiteSpace=wrap;html=1;fillColor=#FFCCCC;strokeColor=#FF9999;strokeWidth=2;fontStyle=1;fontColor=#660000;" vertex="1" parent="1">
          <mxGeometry x="129.5" y="220" width="110" height="45" as="geometry" />
        </mxCell>
        <mxCell id="aZ8XBkIxwnrdvl8guLjz-18" value="interpolation&lt;div&gt;(linear)&lt;/div&gt;" style="rounded=1;whiteSpace=wrap;html=1;fillColor=#FFCCCC;strokeColor=#FF9999;strokeWidth=2;fontStyle=1;fontColor=#660000;" vertex="1" parent="1">
          <mxGeometry x="129.5" y="290" width="110" height="45" as="geometry" />
        </mxCell>
        <mxCell id="JsP1ZduBvyLPINoLTS_t-8" style="edgeStyle=orthogonalEdgeStyle;rounded=0;orthogonalLoop=1;jettySize=auto;html=1;" edge="1" parent="1" source="aZ8XBkIxwnrdvl8guLjz-20" target="aZ8XBkIxwnrdvl8guLjz-21">
          <mxGeometry relative="1" as="geometry" />
        </mxCell>
        <mxCell id="aZ8XBkIxwnrdvl8guLjz-20" value="&lt;font color=&quot;#004491&quot;&gt;Annual Change&lt;/font&gt;&lt;div&gt;&lt;font color=&quot;#004491&quot;&gt;2020&lt;/font&gt;&lt;/div&gt;" style="shape=parallelogram;perimeter=parallelogramPerimeter;whiteSpace=wrap;html=1;fixedSize=1;fillColor=#CCE5FF;strokeColor=#66B2FF;strokeWidth=2;fontStyle=1;fontColor=#99CCFF;" vertex="1" parent="1">
          <mxGeometry x="431" y="60" width="120" height="45" as="geometry" />
        </mxCell>
        <mxCell id="JsP1ZduBvyLPINoLTS_t-9" style="edgeStyle=orthogonalEdgeStyle;rounded=0;orthogonalLoop=1;jettySize=auto;html=1;entryX=0.5;entryY=0;entryDx=0;entryDy=0;" edge="1" parent="1" source="aZ8XBkIxwnrdvl8guLjz-21" target="aZ8XBkIxwnrdvl8guLjz-25">
          <mxGeometry relative="1" as="geometry" />
        </mxCell>
        <mxCell id="aZ8XBkIxwnrdvl8guLjz-21" value="reclassify&amp;nbsp;&lt;div&gt;(undisturbed)&lt;/div&gt;" style="rounded=1;whiteSpace=wrap;html=1;fillColor=#FFCCCC;strokeColor=#FF9999;strokeWidth=2;fontStyle=1;fontColor=#660000;" vertex="1" parent="1">
          <mxGeometry x="436" y="160" width="110" height="45" as="geometry" />
        </mxCell>
        <mxCell id="JsP1ZduBvyLPINoLTS_t-10" style="edgeStyle=orthogonalEdgeStyle;rounded=0;orthogonalLoop=1;jettySize=auto;html=1;entryX=0.5;entryY=0;entryDx=0;entryDy=0;" edge="1" parent="1" source="aZ8XBkIxwnrdvl8guLjz-25" target="aZ8XBkIxwnrdvl8guLjz-32">
          <mxGeometry relative="1" as="geometry" />
        </mxCell>
        <mxCell id="aZ8XBkIxwnrdvl8guLjz-25" value="aggregate&lt;div&gt;( &amp;gt; 95% de forêt)&lt;/div&gt;" style="rounded=1;whiteSpace=wrap;html=1;fillColor=#FFCCCC;strokeColor=#FF9999;strokeWidth=2;fontStyle=1;fontColor=#660000;" vertex="1" parent="1">
          <mxGeometry x="436" y="249" width="110" height="41" as="geometry" />
        </mxCell>
        <mxCell id="aZ8XBkIxwnrdvl8guLjz-29" value="" style="shape=parallelogram;perimeter=parallelogramPerimeter;whiteSpace=wrap;html=1;fixedSize=1;fillColor=#CCFFCC;strokeColor=#009900;strokeWidth=2;fontStyle=1;fontColor=#006600;" vertex="1" parent="1">
          <mxGeometry x="108.5" y="374" width="142" height="45" as="geometry" />
        </mxCell>
        <mxCell id="JsP1ZduBvyLPINoLTS_t-11" style="edgeStyle=orthogonalEdgeStyle;rounded=0;orthogonalLoop=1;jettySize=auto;html=1;" edge="1" parent="1" source="aZ8XBkIxwnrdvl8guLjz-30" target="JsP1ZduBvyLPINoLTS_t-4">
          <mxGeometry relative="1" as="geometry" />
        </mxCell>
        <mxCell id="aZ8XBkIxwnrdvl8guLjz-30" value="EVI_filled" style="shape=parallelogram;perimeter=parallelogramPerimeter;whiteSpace=wrap;html=1;fixedSize=1;fillColor=#CCFFCC;strokeColor=#009900;strokeWidth=2;fontStyle=1;fontColor=#006600;" vertex="1" parent="1">
          <mxGeometry x="113.5" y="380" width="142" height="45" as="geometry" />
        </mxCell>
        <mxCell id="JsP1ZduBvyLPINoLTS_t-12" style="edgeStyle=orthogonalEdgeStyle;rounded=0;orthogonalLoop=1;jettySize=auto;html=1;" edge="1" parent="1" source="aZ8XBkIxwnrdvl8guLjz-32" target="JsP1ZduBvyLPINoLTS_t-4">
          <mxGeometry relative="1" as="geometry" />
        </mxCell>
        <mxCell id="aZ8XBkIxwnrdvl8guLjz-32" value="forest_cover_2020" style="shape=parallelogram;perimeter=parallelogramPerimeter;whiteSpace=wrap;html=1;fixedSize=1;fillColor=#CCFFCC;strokeColor=#009900;strokeWidth=2;fontStyle=1;fontColor=#006600;" vertex="1" parent="1">
          <mxGeometry x="420" y="380" width="142" height="45" as="geometry" />
        </mxCell>
        <mxCell id="aZ8XBkIxwnrdvl8guLjz-33" value="lissage&amp;nbsp;&lt;div&gt;Savitzky-Golay&lt;/div&gt;" style="rounded=1;whiteSpace=wrap;html=1;fillColor=#FFCCCC;strokeColor=#FF9999;strokeWidth=2;fontStyle=1;fontColor=#660000;" vertex="1" parent="1">
          <mxGeometry x="284.5" y="510" width="110" height="45" as="geometry" />
        </mxCell>
        <mxCell id="yboB7hye_Gtw3f_Axh3L-17" style="edgeStyle=orthogonalEdgeStyle;rounded=0;orthogonalLoop=1;jettySize=auto;html=1;" edge="1" parent="1" source="JsP1ZduBvyLPINoLTS_t-4" target="aZ8XBkIxwnrdvl8guLjz-33">
          <mxGeometry relative="1" as="geometry" />
        </mxCell>
        <mxCell id="JsP1ZduBvyLPINoLTS_t-4" value="mask" style="rounded=1;whiteSpace=wrap;html=1;fillColor=#FFCCCC;strokeColor=#FF9999;strokeWidth=2;fontStyle=1;fontColor=#660000;" vertex="1" parent="1">
          <mxGeometry x="284.5" y="428" width="110" height="40" as="geometry" />
        </mxCell>
        <mxCell id="yboB7hye_Gtw3f_Axh3L-1" value="" style="shape=parallelogram;perimeter=parallelogramPerimeter;whiteSpace=wrap;html=1;fixedSize=1;fillColor=#fff2cc;strokeColor=#cb9b2a;strokeWidth=2;fontStyle=1;" vertex="1" parent="1">
          <mxGeometry x="261.5" y="590" width="140" height="45" as="geometry" />
        </mxCell>
        <mxCell id="yboB7hye_Gtw3f_Axh3L-2" value="" style="shape=parallelogram;perimeter=parallelogramPerimeter;whiteSpace=wrap;html=1;fixedSize=1;fillColor=#fff2cc;strokeColor=#cb9b2a;strokeWidth=2;fontStyle=1;" vertex="1" parent="1">
          <mxGeometry x="265.5" y="595" width="140" height="45" as="geometry" />
        </mxCell>
        <mxCell id="yboB7hye_Gtw3f_Axh3L-4" value="&lt;font color=&quot;#7f6315&quot;&gt;EVI_smoothed&lt;/font&gt;" style="shape=parallelogram;perimeter=parallelogramPerimeter;whiteSpace=wrap;html=1;fixedSize=1;fillColor=#fff2cc;strokeColor=#cb9b2a;strokeWidth=2;fontStyle=1;" vertex="1" parent="1">
          <mxGeometry x="269.5" y="600" width="140" height="45" as="geometry" />
        </mxCell>
        <mxCell id="yboB7hye_Gtw3f_Axh3L-16" style="edgeStyle=orthogonalEdgeStyle;rounded=0;orthogonalLoop=1;jettySize=auto;html=1;" edge="1" parent="1" source="aZ8XBkIxwnrdvl8guLjz-18" target="aZ8XBkIxwnrdvl8guLjz-30">
          <mxGeometry relative="1" as="geometry" />
        </mxCell>
        <mxCell id="yboB7hye_Gtw3f_Axh3L-19" style="edgeStyle=orthogonalEdgeStyle;rounded=0;orthogonalLoop=1;jettySize=auto;html=1;" edge="1" parent="1" source="aZ8XBkIxwnrdvl8guLjz-33" target="yboB7hye_Gtw3f_Axh3L-4">
          <mxGeometry relative="1" as="geometry" />
        </mxCell>
      </root>
    </mxGraphModel>
  </diagram>
</mxfile>
